<svg width="180" height="180" viewBox="0 0 180 180" fill="none" xmlns="http://www.w3.org/2000/svg">
  <defs>
    <linearGradient id="butterfly-left-top" x1="0%" y1="0%" x2="100%" y2="100%">
      <stop offset="0%" style="stop-color:#2D1B69;stop-opacity:1" />
      <stop offset="100%" style="stop-color:#1E6B7B;stop-opacity:1" />
    </linearGradient>
    <linearGradient id="butterfly-right-top" x1="0%" y1="0%" x2="100%" y2="100%">
      <stop offset="0%" style="stop-color:#1E6B7B;stop-opacity:1" />
      <stop offset="100%" style="stop-color:#0891B2;stop-opacity:1" />
    </linearGradient>
    <linearGradient id="butterfly-left-bottom" x1="0%" y1="100%" x2="100%" y2="0%">
      <stop offset="0%" style="stop-color:#0891B2;stop-opacity:1" />
      <stop offset="100%" style="stop-color:#2563EB;stop-opacity:1" />
    </linearGradient>
    <linearGradient id="butterfly-right-bottom" x1="100%" y1="100%" x2="0%" y2="0%">
      <stop offset="0%" style="stop-color:#8B5CF6;stop-opacity:1" />
      <stop offset="100%" style="stop-color:#2563EB;stop-opacity:1" />
    </linearGradient>
  </defs>
  
  <!-- Left top wing -->
  <path d="M90 55 C60 25, 25 35, 30 70 C35 95, 55 100, 90 90" fill="url(#butterfly-left-top)"/>
  
  <!-- Right top wing -->
  <path d="M90 55 C120 25, 155 35, 150 70 C145 95, 125 100, 90 90" fill="url(#butterfly-right-top)"/>
  
  <!-- Left bottom wing -->
  <path d="M90 90 C55 100, 40 120, 50 145 C60 160, 80 155, 90 125" fill="url(#butterfly-left-bottom)"/>
  
  <!-- Right bottom wing -->
  <path d="M90 90 C125 100, 140 120, 130 145 C120 160, 100 155, 90 125" fill="url(#butterfly-right-bottom)"/>
</svg>